<?xml version="1.0" standalone="no"?><!DOCTYPE svg PUBLIC "-//W3C//DTD SVG 1.1//EN" "http://www.w3.org/Graphics/SVG/1.1/DTD/svg11.dtd"><svg t="1679062273347" class="icon" viewBox="0 0 1024 1024" version="1.1" xmlns="http://www.w3.org/2000/svg" p-id="2576" xmlns:xlink="http://www.w3.org/1999/xlink" width="200" height="200"><path d="M330.1888 691.5072l-24.5248 55.4496 149.504 2.9184-33.8432-75.264z" fill="#E56A77" p-id="2577"></path><path d="M638.976 685.9264l-24.4736 55.4496 149.504 2.9184-33.8432-75.264z" fill="#84DDFD" p-id="2578"></path><path d="M127.6928 394.8544a290.6112 251.5456 90 1 0 503.0912 0 290.6112 251.5456 90 1 0-503.0912 0Z" fill="#E56A77" p-id="2579"></path><path d="M694.0672 85.6064c-51.6608 0-78.08 7.2704-124.5184 34.6624 66.9696 52.0704 106.5472 162.7136 106.5472 267.9808 0 98.56-75.9808 186.4192-135.936 239.872 36.5056 28.3648 107.6736 46.4896 153.9584 46.4896 131.1232 0 237.4144-131.84 237.4144-294.5024s-106.3424-294.5024-237.4656-294.5024z" fill="#84DDFD" p-id="2580"></path><path d="M946.8416 368.0256C946.8416 190.5152 818.7392 46.08 661.3504 46.08c-56.7808 0-111.2576 18.6368-158.208 53.9648-41.984-27.392-90.624-43.1104-142.4384-43.1104-157.44 0-285.4912 144.4352-285.4912 321.9456 0 144.9472 85.4016 267.8272 202.4448 308.0192-7.5264 12.4928-13.824 26.2656-16.9472 33.4848-5.7856 13.312-5.4784 27.0336 0.8704 36.7104 5.3248 8.1408 14.08 12.5952 24.6272 12.5952h59.904c2.2528 39.0656 17.2544 56.4736 30.6176 71.936 3.2256 3.7376 6.2976 7.2704 9.3184 11.264 13.5168 17.3056 28.0576 41.5744 20.6848 58.88-8.2432 19.456-41.8304 27.0848-54.1184 28.416a15.3088 15.3088 0 0 0-13.6704 16.8448c0.8192 7.8848 7.4752 13.824 15.2576 13.824 0.512 0 1.024 0 1.5872-0.1024 6.3488-0.6656 62.3616-7.424 79.2064-46.848 10.6496-24.9856 2.3552-55.1936-24.576-89.7024-3.4816-4.608-7.0144-8.704-10.4448-12.6464-11.6736-13.5168-21.248-24.6272-23.1424-51.8656h59.3408c12.2368 0 22.7328-6.1952 28.0064-16.5376 5.4272-10.5984 4.1472-23.7568-3.2256-34.5088l-17.6128-31.6416c27.0336-9.216 52.3776-22.8352 75.3664-40.1408 20.3264 13.2608 41.9328 23.552 64.3584 30.7712-6.912 11.776-13.1584 25.1392-17.152 34.1504-5.9904 13.568-5.6832 27.648 0.8704 37.7344 5.2736 8.1408 14.2848 12.8 24.6272 12.8h59.8528c2.1504 40.6528 17.1008 58.7264 30.464 74.8032 3.2256 3.8912 6.2976 7.5264 9.3184 11.7248 13.824 18.432 28.5696 44.2368 20.5824 62.7712-8.6528 20.0192-41.7792 27.8528-53.8624 29.184a15.31392 15.31392 0 0 0-13.6192 16.896 15.31392 15.31392 0 0 0 15.2576 13.7216c0.5632 0 1.0752 0 1.6384-0.1024 2.5088-0.256 61.0816-6.912 78.7456-47.4112 11.2128-25.7536 3.1232-57.1904-24.0128-93.3376-3.4816-4.8128-7.0144-9.0112-10.3936-13.1072-11.8784-14.2848-21.6064-26.0096-23.3984-55.1424h59.4432c12.6464 0 23.7056-7.3216 28.8768-19.0464 4.9152-11.2128 3.1744-24.1664-4.352-33.5872l-18.688-34.56c115.5072-41.216 199.5776-163.2768 199.5776-307.0976zM105.8816 378.88c0-160.6144 114.2784-291.2256 254.7712-291.2256 50.5344 0 97.6896 16.9984 137.3696 46.1312 2.6624 1.9456 5.2736 3.9424 7.8336 5.9904 1.8432 1.4848 3.6864 2.9184 5.4784 4.4544 1.792 1.4848 3.5328 3.072 5.2736 4.608 40.704 36.1472 71.68 86.016 87.3472 143.5136 0 0.1024 0.0512 0.1536 0.0512 0.256 2.0992 7.7312 3.8912 15.616 5.4272 23.6544 0.3072 1.4848 0.6144 2.9696 0.8704 4.5056 0.4608 2.7136 0.8704 5.4784 1.28 8.192a345.88672 345.88672 0 0 1 2.048 16.128c0.3584 3.6352 0.6656 7.2192 0.9216 10.9056 0.1536 1.9456 0.3072 3.8912 0.4096 5.888 0.3072 5.6832 0.4608 11.3664 0.4608 17.1008 0 5.5296-0.1536 11.1104-0.4608 16.5888-0.0512 1.28-0.1536 2.5088-0.256 3.7888-0.256 4.4032-0.6144 8.8064-1.0752 13.2096-0.1024 1.0752-0.256 2.1504-0.3584 3.2256-0.5632 4.8128-1.1776 9.6256-1.8944 14.3872-0.1024 0.512-0.1536 1.024-0.256 1.536-7.3216 45.1072-23.9104 87.6032-48.128 123.9552-0.1536 0.256-0.3072 0.4608-0.4608 0.7168-2.6624 3.9424-5.376 7.7824-8.192 11.52-0.7168 0.9728-1.4336 1.8944-2.1504 2.8672-2.3552 3.072-4.8128 6.144-7.3216 9.1136-0.8704 1.0752-1.792 2.1504-2.6624 3.2256-2.8672 3.328-5.7856 6.5536-8.7552 9.728-0.4608 0.512-0.9216 1.0752-1.4336 1.536-3.3792 3.5328-6.8608 6.912-10.4448 10.24-1.1776 1.1264-2.4576 2.2016-3.6352 3.2768-2.5088 2.2528-5.0176 4.4544-7.6288 6.6048-27.6992 23.0912-59.5968 39.8848-94.1568 48.6912-4.2496 1.0752-8.5504 2.048-12.8512 2.8672-0.1536 0.0512-0.3072 0.0512-0.4608 0.1024a223.7696 223.7696 0 0 1-96.1024-2.5088C192.1024 635.1872 105.8816 518.3488 105.8816 378.88z m306.8928 316.5184l21.7088 38.9632c0.3072 0.512 0.6144 1.0752 0.9728 1.536 1.0752 1.4336 1.28 2.56 1.3312 3.072-0.1536 0-0.3584 0.0512-0.6144 0.0512H287.232c0.0512-1.4336 0.4096-3.6864 1.5872-6.3488 6.7072-15.36 13.9264-28.928 19.8144-37.2224l2.5088 0.4608c3.072 0.6144 6.144 1.1776 9.216 1.6896 1.4848 0.256 2.9696 0.4096 4.4544 0.6656 2.9184 0.4096 5.888 0.8192 8.8576 1.1264 1.8432 0.2048 3.6352 0.3072 5.4784 0.4608 2.6624 0.2048 5.3248 0.4608 8.0384 0.6144 2.5088 0.1536 5.0176 0.1536 7.5264 0.2048 1.9968 0.0512 3.9936 0.1536 5.9904 0.1536 2.304 0 4.5568-0.1536 6.8608-0.2048 2.1504-0.0512 4.352-0.0512 6.5024-0.2048 3.072-0.1536 6.0928-0.4608 9.1136-0.7168 1.4336-0.1536 2.8672-0.2048 4.3008-0.3584 3.328-0.3584 6.656-0.8192 9.984-1.28l3.2256-0.4608c3.4816-0.5632 6.9632-1.2288 10.3936-1.8944 0.512-0.1024 1.1264-0.1536 1.6896-0.3072z m253.5424-5.4272c16.64 0 33.024-1.8944 50.7904-5.888l22.4768 41.5744c0.6144 1.1264 1.3312 2.1504 2.2016 3.1232 0.5632 0.6144 0.6144 1.28 0.256 2.1504-0.3072 0.6656-0.5632 0.6656-0.7168 0.6656l-149.0432-0.0512c-0.0512-1.5872 0.256-4.1984 1.6384-7.3216 7.0144-15.7696 14.4384-29.9008 20.1216-38.4 12.032 2.304 24.1152 3.3792 35.1232 3.7888 4.0448 0.2048 8.0896 0.3072 12.1344 0.3072h0.768c1.4336 0.0512 2.8672 0.0512 4.2496 0.0512z m-4.1472-30.72h-1.8432c-40.8576-0.2048-80.896-11.52-116.8896-33.0752 2.9696-2.7648 5.7856-5.6832 8.6528-8.6016l0.5632-0.5632c2.7648-2.816 5.4272-5.7344 8.0896-8.704l2.6112-2.9184c2.2528-2.56 4.4544-5.1712 6.656-7.8336 1.28-1.536 2.56-3.1232 3.7888-4.7104 1.792-2.2528 3.5328-4.5568 5.2736-6.8608 1.7408-2.304 3.3792-4.6592 5.0688-7.0144 1.2288-1.7408 2.4576-3.4816 3.6352-5.2224 2.5088-3.6864 4.9152-7.4752 7.2704-11.264 0.3072-0.512 0.6656-1.0752 1.024-1.5872 23.04-37.7856 39.0656-81.3568 46.08-128.3072 0.0512-0.256 0.0512-0.4608 0.1024-0.7168 0.768-5.2224 1.4336-10.496 1.9456-15.7696 0.0512-0.6656 0.1536-1.3312 0.2048-1.9968 0.4608-4.864 0.8192-9.8304 1.0752-14.7456 0.0512-0.9728 0.1536-1.9456 0.2048-2.8672 0.256-5.7856 0.4096-11.5712 0.4096-17.4592 0-6.0416-0.1536-12.032-0.4608-17.9712-0.1024-2.2016-0.3072-4.352-0.4608-6.5024-0.256-3.6864-0.512-7.3728-0.8704-11.0592-0.256-2.7648-0.6144-5.5296-0.9216-8.2944-0.3584-2.9184-0.7168-5.7856-1.1264-8.6528-0.4608-3.2256-0.9728-6.5024-1.536-9.6768-0.3584-2.048-0.768-4.1472-1.1264-6.1952-0.7168-3.8912-1.536-7.7312-2.3552-11.5712-0.1536-0.5632-0.256-1.1264-0.4096-1.6896-16.384-71.0656-53.9136-133.9392-107.6224-178.176 39.7824-27.6992 85.0944-42.24 132.096-42.24 140.4928 0 254.7712 130.6624 254.7712 291.2256 0.0512 160.0512-113.8176 290.5088-253.9008 291.0208z" fill="#333333" p-id="2581"></path><path d="M524.7488 527.9232c-2.9696 0-5.9904-0.8704-8.6528-2.6624a15.37536 15.37536 0 0 1-4.0448-21.3504c53.8624-79.0016 24.4224-181.1456 24.1152-182.1696-2.4064-8.1408 2.2016-16.6912 10.3424-19.0976 8.1408-2.4064 16.64 2.2016 19.0976 10.2912 1.4336 4.7104 34.048 116.992-28.16 208.2816-2.9184 4.352-7.7824 6.7072-12.6976 6.7072zM828.0576 517.6832c-2.9696 0-5.9904-0.8704-8.6528-2.6624a15.37536 15.37536 0 0 1-4.0448-21.3504c53.8624-79.0016 24.4224-181.1456 24.1152-182.1696-2.4064-8.1408 2.2016-16.6912 10.3424-19.0976 8.1408-2.4064 16.64 2.2016 19.0976 10.2912 1.4336 4.7104 34.048 116.992-28.16 208.2816-2.9696 4.352-7.7824 6.7072-12.6976 6.7072z" fill="#333333" p-id="2582"></path></svg>