<?xml version="1.0" standalone="no"?><!DOCTYPE svg PUBLIC "-//W3C//DTD SVG 1.1//EN" "http://www.w3.org/Graphics/SVG/1.1/DTD/svg11.dtd"><svg t="1679062280900" class="icon" viewBox="0 0 1024 1024" version="1.1" xmlns="http://www.w3.org/2000/svg" p-id="2747" xmlns:xlink="http://www.w3.org/1999/xlink" width="200" height="200"><path d="M942.7456 293.2736h-35.9424l3.1232 474.5728c0 15.0528-17.8176 22.0672-31.3856 15.4624-147.0464-71.6288-297.472-7.2704-348.2112 15.9744-8.448 3.8912-18.0736-2.2528-18.0736-11.5712v-1.3824c0 9.5232-10.1376 15.7696-18.5856 11.3152-141.4656-75.0592-280.6272-30.2592-341.8112-7.3216-26.1632 9.7792-47.7696-11.4176-47.7696-11.4176l-0.2048 83.1488c0 17.92 44.4928-0.6656 62.3616-2.0992l340.1216-27.3408c1.6384-0.1536 9.5744-0.1536 11.2128 0l422.1952 38.2976c17.8688 1.4336 33.6384-2.0992 33.6384-20.0192V323.9936c0.0512-16.9984-13.7216-30.72-30.6688-30.72z" fill="#BC9BE0" p-id="2748"></path><path d="M164.3008 252.8768v472.2688c0 13.7216 13.1584 22.9376 25.088 17.6128 52.992-23.9104 181.7088-67.2768 306.2784 2.7648 7.424 4.1472 16.3328-1.6384 16.3328-10.5472V264.3456c0-7.6288-4.2496-14.5408-10.8544-17.5616-41.5744-18.8416-189.8496-72.3968-327.424-10.8032-6.144 2.7648-9.4208 9.8816-9.4208 16.896zM558.3872 252.8768v472.2688c0 13.7216 13.2096 22.9376 25.1392 17.6128 53.0944-23.9104 182.0672-67.2768 306.8928 2.7648 7.424 4.1472 16.384-1.6384 16.384-10.5472V264.3456c0-7.6288-4.2496-14.5408-10.9056-17.5616-41.6256-18.8416-190.208-72.3968-328.0384-10.8032-6.144 2.7648-9.472 9.8816-9.472 16.896z" fill="#FFB47A" p-id="2749"></path><path d="M942.7456 262.5536h-20.5824V235.52c0-14.3872-8.4992-27.2896-21.6576-32.9216-50.8928-21.76-229.12-86.1696-385.2288 0.1024-1.4848 0.8192-2.9184 1.792-4.2496 2.7648-1.6896-1.0752-3.4304-2.048-5.2736-2.8672-50.8928-21.76-229.12-86.1696-385.2288 0.1024a36.0192 36.0192 0 0 0-18.6368 31.488v28.3648h-14.0288c-25.3952 0-46.08 20.6848-46.08 46.08v526.848c0 12.8 5.4272 25.1904 14.848 33.8944a46.2592 46.2592 0 0 0 34.9184 12.0832l419.2768-33.7408c0.8192-0.0512 1.6384-0.0512 2.4576 0l425.8816 33.792a46.1312 46.1312 0 0 0 34.9184-12.0832 46.19776 46.19776 0 0 0 14.7968-33.8432V308.6336c-0.0512-25.4464-20.736-46.08-46.1312-46.08zM527.36 234.1888c0-1.8944 1.0752-3.6352 2.7648-4.5568 53.8624-29.7472 110.8992-39.936 163.6864-39.936 88.2688 0 164.7616 28.416 194.56 41.216 1.8432 0.768 3.0208 2.6112 3.0208 4.6592v491.52c0 2.4576-1.536 3.7888-2.4064 4.352-0.6656 0.4096-1.8432 0.9728-3.2768 0.768a4.74624 4.74624 0 0 1-1.536-0.4608 361.344 361.344 0 0 0-66.2528-24.576c-124.16-32.8192-239.0528 6.8608-290.56 29.8496V234.1888z m-394.8032 0c0-1.8944 1.0752-3.6352 2.7648-4.5568 143.872-79.5136 310.6304-19.1488 358.2976 1.28 1.8432 0.768 3.0208 2.56 3.0208 4.608v499.7632c-4.1984-2.1504-8.3968-4.1984-12.5952-6.144-1.28-0.6144-2.6112-1.1776-3.8912-1.7408-2.9696-1.3312-5.9392-2.6624-8.9088-3.8912-1.4336-0.6144-2.8672-1.1776-4.3008-1.792-3.0208-1.2288-6.0928-2.4064-9.1136-3.5328-1.2288-0.4608-2.4064-0.9216-3.6352-1.3312-4.1984-1.536-8.3968-2.9696-12.5952-4.3008-0.4096-0.1536-0.8192-0.256-1.2288-0.3584-3.7888-1.1776-7.5776-2.304-11.3664-3.3792-1.3312-0.3584-2.6112-0.7168-3.8912-1.0752-2.9184-0.768-5.888-1.536-8.8064-2.2528-1.3824-0.3584-2.7648-0.6656-4.1472-0.9728-3.1232-0.7168-6.1952-1.3824-9.2672-1.9968-1.0752-0.2048-2.0992-0.4608-3.1744-0.6656-4.1472-0.8192-8.2432-1.536-12.3392-2.1504l-1.9968-0.3072c-3.4304-0.512-6.8608-1.024-10.2912-1.4336l-3.84-0.4608c-2.8672-0.3072-5.7344-0.6144-8.6016-0.8704-1.28-0.1024-2.56-0.256-3.84-0.3584-3.1744-0.256-6.2976-0.4608-9.4208-0.6656l-2.56-0.1536c-3.9936-0.2048-7.936-0.3584-11.8784-0.4608-0.768 0-1.536 0-2.304-0.0512-2.3552-0.0512-4.7104-0.1024-7.0656-0.1024-0.6144 0-1.1776 0.0512-1.792 0.0512-3.4816 0-6.8608 0.1024-10.2912 0.2048-1.2288 0.0512-2.4576 0.0512-3.6864 0.1024-4.5568 0.1536-9.0624 0.4096-13.5168 0.7168l-3.84 0.3072c-3.2256 0.256-6.4 0.512-9.5744 0.8192-1.6896 0.1536-3.328 0.3584-4.9664 0.512-2.7648 0.3072-5.5296 0.6144-8.2432 0.9728-1.6896 0.2048-3.3792 0.4608-5.0176 0.6656-2.7136 0.3584-5.4272 0.768-8.0896 1.1776-1.536 0.256-3.072 0.4608-4.5568 0.7168-3.1744 0.512-6.3488 1.0752-9.4208 1.6896-0.9216 0.1536-1.792 0.3072-2.7136 0.512-3.9424 0.768-7.8336 1.5872-11.6224 2.4064-1.2288 0.256-2.4064 0.5632-3.584 0.8192-2.6112 0.6144-5.2224 1.1776-7.8336 1.8432-1.4336 0.3584-2.7648 0.7168-4.1984 1.024-2.304 0.5632-4.608 1.1776-6.8608 1.792-1.3824 0.3584-2.7136 0.7168-4.0448 1.0752-2.304 0.6144-4.5568 1.28-6.7584 1.9456-1.1776 0.3584-2.3552 0.6656-3.4816 1.024-2.816 0.8704-5.5808 1.6896-8.2944 2.56-0.4608 0.1536-0.9216 0.256-1.3312 0.4096-3.1232 1.024-6.144 1.9968-9.0624 3.0208-0.9728 0.3072-1.8432 0.6656-2.816 0.9728-1.9968 0.6656-3.9424 1.3824-5.8368 2.048-1.024 0.3584-2.048 0.768-3.072 1.1264-1.7408 0.6144-3.4304 1.28-5.0688 1.8944-0.9728 0.3584-1.8944 0.7168-2.816 1.0752-1.6896 0.6656-3.328 1.3312-4.9152 1.9456-0.7168 0.3072-1.4848 0.6144-2.2016 0.8704-2.2528 0.9216-4.4032 1.792-6.4512 2.6624-2.2016 0.9216-3.9424 0.1536-4.8128-0.4096a5.00224 5.00224 0 0 1-2.304-4.3008V234.1888z m825.5488 601.344c0 4.352-1.7408 8.3456-4.9152 11.264-3.1744 2.9696-7.3728 4.352-11.6224 4.0448l-425.8304-33.792a44.36992 44.36992 0 0 0-7.3728 0l-419.2768 33.7408c-4.2496 0.3584-8.448-1.0752-11.6224-4.0448-3.1744-2.9184-4.9664-6.9632-4.9664-11.3152V308.6336c0-8.448 6.912-15.36 15.36-15.36h14.0288v435.9168a35.6864 35.6864 0 0 0 16.0768 29.9008 35.75296 35.75296 0 0 0 33.792 3.072c55.0912-23.4496 197.888-70.0928 334.5408 2.4064 1.024 0.512 2.048 0.9728 3.072 1.3824 0.3072 0.1024 0.6656 0.2048 0.9728 0.3072 0.7168 0.256 1.4336 0.512 2.2016 0.6656 0.4096 0.1024 0.768 0.1536 1.1776 0.256 0.6656 0.1536 1.3312 0.3072 2.048 0.3584 0.4096 0.0512 0.8704 0.1024 1.28 0.1024 0.6656 0.0512 1.28 0.1024 1.9456 0.1024h0.4096c0.256 0 0.512-0.0512 0.8192-0.0512 0.768 0 1.536-0.0512 2.304-0.1536l1.28-0.1536c0.768-0.1024 1.4848-0.256 2.2528-0.4608l1.2288-0.3072c0.8192-0.256 1.5872-0.512 2.3552-0.8192 0.3072-0.1536 0.6656-0.256 0.9728-0.3584 0.0512-0.0512 0.1536-0.0512 0.2048-0.1024 0.512 0.3072 1.0752 0.5632 1.6384 0.8192 0.3584 0.2048 0.7168 0.3584 1.0752 0.5632 1.1264 0.512 2.304 0.9728 3.4816 1.28h0.0512a21.26336 21.26336 0 0 0 4.7104 0.8704c0.8704 0.1024 1.6896 0.1536 2.56 0.2048 0.2048 0 0.3584 0.0512 0.5632 0.0512 0.3584 0 0.7168-0.0512 1.0752-0.0512 0.4608 0 0.9216-0.0512 1.3824-0.0512 0.6144-0.0512 1.2288-0.1536 1.8432-0.256 0.4096-0.0512 0.8704-0.1024 1.28-0.2048 0.6656-0.1536 1.3312-0.3072 1.9968-0.512l1.0752-0.3072c1.024-0.3584 2.048-0.7168 3.0208-1.1776 54.1184-24.7808 195.072-75.0592 334.2848-7.2704 1.3824 0.6656 2.816 1.28 4.2496 1.7408 0.768 0.256 1.5872 0.4608 2.4064 0.6656 0.6656 0.1536 1.28 0.4096 1.9456 0.512 0.8192 0.1536 1.6896 0.256 2.5088 0.3584 0.6144 0.1024 1.28 0.2048 1.8944 0.256 1.3312 0.1024 2.6112 0.1024 3.9424 0.0512h0.512c1.28-0.0512 2.56-0.256 3.84-0.4608 0.2048-0.0512 0.4096-0.0512 0.5632-0.0512 4.4032-0.8192 8.704-2.4576 12.6464-4.9152a35.6864 35.6864 0 0 0 16.8448-30.4128V293.2736h20.5824c8.448 0 15.36 6.912 15.36 15.36v526.8992z" fill="#333333" p-id="2750"></path></svg>