<?xml version="1.0" standalone="no"?><!DOCTYPE svg PUBLIC "-//W3C//DTD SVG 1.1//EN" "http://www.w3.org/Graphics/SVG/1.1/DTD/svg11.dtd"><svg t="1679062305983" class="icon" viewBox="0 0 1024 1024" version="1.1" xmlns="http://www.w3.org/2000/svg" p-id="3086" xmlns:xlink="http://www.w3.org/1999/xlink" width="200" height="200"><path d="M685.9776 928.256l-91.5456-231.7312a171.7248 171.7248 0 0 1-64.2048 12.4416c-23.6544 0-68.2496-4.7616-88.7808-13.4144l-93.696 220.8256c50.2272 21.1456 124.5184 41.6768 182.4768 41.6768a421.99552 421.99552 0 0 0 155.7504-29.7984zM370.7904 146.6368l75.1104 196.608c20.1216-8.2432 60.2624-10.2912 83.3024-10.2912 21.504 0 29.0304 7.168 47.9744 14.3872l91.8016-208.5376c-48.64-19.6096-83.1488-23.4496-138.8032-23.4496-56.4224 0.0512-110.2336 11.1616-159.3856 31.2832zM929.3824 680.4992c17.4592-46.2336 19.8144-97.5872 19.8144-149.9136 0-57.8048-21.4528-124.928-42.496-175.0528l-211.968 90.6752c8.0896 19.968 12.5952 62.7712 12.5952 85.6576 0 19.712-3.3792 38.6048-9.472 56.2688l231.5264 92.3648zM330.8544 521.1648c0-23.3472 4.6592-57.344 13.056-77.6704l-198.144-74.2912c-19.8656 48.896-36.864 111.4112-36.864 167.4752 0 58.88 9.5744 94.3616 26.88 143.4112l208.128-87.1424c-9.5744-21.4528-13.056-46.7968-13.056-71.7824z" fill="#84DDFD" p-id="3087"></path><path d="M343.9616 592.896l-208.1792 87.1936c42.9056 100.1984 111.4624 193.8944 211.968 236.2368l93.696-228.7616c-40.2944-16.9984-79.6672-54.8352-97.4848-94.6688zM343.9616 443.5456c17.5616-42.3424 59.4944-82.944 101.9392-100.3008l-75.1104-196.608C265.984 189.5424 188.416 264.3456 145.8176 369.2544l198.144 74.2912zM682.24 442.3168l219.9552-94.4128c-43.4176-103.424-127.3344-167.9872-231.5264-209.9712L581.888 346.112c44.8 16.9984 82.3808 51.9168 100.352 96.2048zM697.8048 588.032c-16.2816 47.1552-56.1152 88.9344-102.1952 107.4688l88.2688 227.4816c109.7216-43.6736 203.6736-131.7888 245.4528-242.4832l-231.5264-92.4672z" fill="#FFA750" p-id="3088"></path><path d="M935.936 333.5168c-0.1024-0.3072-0.3072-0.512-0.4608-0.8192-47.5136-112.4864-139.52-203.1104-252.672-248.7296-54.8352-22.1184-112.8448-33.3312-172.3904-33.3312-60.3648 0-119.0912 11.52-174.592 34.2016-114.2272 46.7456-206.336 139.1104-252.8768 253.44-0.0512 0.1024-0.1024 0.1536-0.1024 0.256C60.416 393.728 49.0496 452.0448 49.0496 512c0 62.976 12.4928 124.0576 37.12 181.5552l0.3072 0.6144c46.7968 108.6976 136.0384 197.3248 245.0432 243.2 56.6784 23.8592 116.8896 35.9936 178.8928 35.9936 58.88 0 116.2752-10.9568 170.5984-32.6144 120.0128-47.8208 215.04-144.4864 260.864-265.3696 0.1024-0.2048 0.2048-0.3584 0.3072-0.5632 19.6608-52.0704 29.5936-106.8544 29.5936-162.816 0-61.8496-12.0832-121.9072-35.84-178.4832z m-366.3872 22.3744c43.264 16.384 78.08 50.3296 95.5392 93.184 0.0512 0.1024 0.0512 0.1536 0.0512 0.256 8.0896 19.968 12.2368 41.0624 12.2368 62.6688 0 18.432-3.072 36.608-9.0112 54.0672-0.0512 0.1536-0.1536 0.256-0.2048 0.4096a166.88128 166.88128 0 0 1-95.488 100.4032 166.05184 166.05184 0 0 1-62.208 12.032c-22.4256 0-44.2368-4.352-64.7168-13.0048-39.1168-16.4864-70.2464-47.0016-87.6544-85.9648-0.1024-0.1536-0.2048-0.3072-0.3072-0.512a165.47328 165.47328 0 0 1-14.2848-67.4816c0-21.8624 4.1984-43.1616 12.4416-63.3344 0.1024-0.1536 0.1536-0.3072 0.256-0.512 16.9472-40.9088 50.176-73.984 91.0848-90.7264 20.1216-8.2432 41.3696-12.3904 63.1808-12.3904 20.2752 0.0512 40.1408 3.7376 59.0848 10.9056z m331.8784-24.3712l-214.2208 91.9552a198.62528 198.62528 0 0 0-92.1088-90.112l90.2144-214.9888c94.8224 42.2912 172.3904 118.8352 216.1152 213.1456zM510.4128 81.3568c50.3296 0 99.5328 8.6016 146.3808 25.5488l-90.4192 215.5008c-37.7344-11.1616-78.848-10.6496-116.2752 1.3312L361.7792 107.7248a429.2352 429.2352 0 0 1 148.6336-26.368zM333.312 119.3984l22.3232 54.6304 65.9968 161.3824a199.49056 199.49056 0 0 0-87.4496 87.2448L117.4016 335.9232c42.9056-95.5904 120.4736-173.3632 215.9104-216.5248zM79.7696 512c0-50.7904 8.7552-100.4032 26.0096-147.6608l106.4448 42.5984 110.1312 44.0832A196.25984 196.25984 0 0 0 312.7296 512c0 22.6816 3.7888 44.7488 11.3152 65.8944l-29.696 12.3392-185.6512 77.1072c-19.2-49.4592-28.928-101.632-28.928-155.3408z m249.6512 390.8608c-90.8288-42.24-165.6832-116.5824-208.5888-207.2064l215.7568-89.6512A196.97664 196.97664 0 0 0 419.84 687.7696l-76.3904 181.7088-14.0288 33.3824z m180.992 39.7824c-52.6848 0-103.9872-9.3696-152.6784-27.8528l90.4704-215.0912c20.0192 6.656 40.8576 9.984 62.2592 9.984 20.224 0 40.0384-3.0208 59.136-9.0624l54.6304 138.24 31.1296 78.7968c-46.4384 16.5888-95.1296 24.9856-144.9472 24.9856z m173.4144-36.4032l-85.76-217.088a197.6832 197.6832 0 0 0 93.2352-97.6384l47.6672 19.0464 168.8576 67.4304c-42.5984 101.7856-123.0848 183.808-224 228.2496z m234.8544-257.024l-113.408-45.312-103.7312-41.4208c4.352-16.4864 6.5536-33.4336 6.5536-50.5344 0-20.5312-3.1232-40.6528-9.3184-60.0576l214.6304-92.16c18.3808 48.5376 27.648 99.6864 27.648 152.2176 0 47.0528-7.5264 93.1328-22.3744 137.2672z" fill="#333333" p-id="3089"></path></svg>