<?xml version="1.0" standalone="no"?><!DOCTYPE svg PUBLIC "-//W3C//DTD SVG 1.1//EN" "http://www.w3.org/Graphics/SVG/1.1/DTD/svg11.dtd"><svg t="1679062251091" class="icon" viewBox="0 0 1024 1024" version="1.1" xmlns="http://www.w3.org/2000/svg" p-id="2407" xmlns:xlink="http://www.w3.org/1999/xlink" width="200" height="200"><path d="M821.3504 570.5216c0-61.7984 3.328-119.7568-26.5728-169.6256-71.3216 0-543.5392 3.4304-627.5584 3.4304a328.08448 328.08448 0 0 0-45.0048 166.144c0 186.8288 156.5184 338.2784 349.5424 338.2784s349.5936-151.4496 349.5936-338.2272z" fill="#FBC07C" p-id="2408"></path><path d="M821.3504 570.5216c0-13.9264 0.2048-38.4 0.1024-51.8656h-163.7376c-17.664 0-42.1376-24.9856-61.2864-24.9856-22.6816 0-40.2944 24.9856-64.2048 24.9856H126.3104c-2.6624 16.896-4.096 34.2016-4.096 51.8656 0 186.8288 156.5184 338.2784 349.5424 338.2784s349.5936-151.5008 349.5936-338.2784z" fill="#FFA750" p-id="2409"></path><path d="M820.224 391.8336a394.8544 394.8544 0 0 0-26.4192-55.1424 15.43168 15.43168 0 0 0-13.2608-7.6288c-37.1712 0-168.0896 0.8704-306.7392 1.792-149.8112 1.024-304.6912 2.048-352.1024 2.048-5.5296 0-10.6496 2.9696-13.3632 7.7824-33.2288 58.8288-50.7904 125.9008-50.7904 193.8944 0 163.584 99.9936 304.1792 242.0736 363.9808H195.8912c-8.4992 0-15.36 6.8608-15.36 15.36s6.8608 15.36 15.36 15.36h535.296c8.4992 0 15.36-6.8608 15.36-15.36s-6.8608-15.36-15.36-15.36h-126.3616c67.584-28.4672 125.5936-75.2128 167.8848-134.0416 7.2704 0.8704 14.592 1.3312 21.8112 1.3312 103.6288 0 187.904-84.2752 187.904-187.904 0-93.5936-70.5024-173.4656-162.2016-186.112z m-367.9744 506.6752c-200.704 0-363.9808-163.2768-363.9808-363.9808 0-59.6992 14.6944-118.6304 42.5472-170.9568 55.9616-0.1024 201.8304-1.0752 343.1936-2.048 129.024-0.8704 251.392-1.6896 297.5744-1.792a360.7552 360.7552 0 0 1 27.648 64.768l1.3824 4.5056c0.8704 2.9696 1.7408 5.9392 2.56 8.9088 0.4608 1.7408 0.9728 3.4304 1.4336 5.1712 1.0752 4.0448 2.048 8.1408 2.9696 12.2368 0.4096 1.8944 0.768 3.7888 1.1776 5.6832 0.512 2.6112 1.0752 5.1712 1.536 7.7824 0.4096 2.1504 0.768 4.2496 1.1264 6.4 0.4608 2.6624 0.8192 5.3248 1.2288 7.9872 0.256 1.8432 0.5632 3.6864 0.768 5.5296 0.512 4.2496 0.9728 8.4992 1.3824 12.8 0.1536 1.5872 0.256 3.2256 0.3584 4.864 0.256 3.2256 0.4608 6.5024 0.6144 9.7792 0.0512 1.4848 0.1536 3.0208 0.2048 4.5056 0.1536 4.6592 0.3072 9.3184 0.3072 13.9776 0 5.632-0.1536 11.264-0.4096 16.8448-0.0512 1.5872-0.1536 3.1232-0.256 4.6592-0.256 4.352-0.5632 8.704-0.9728 13.056-0.1024 1.3312-0.2048 2.6112-0.3584 3.9424-1.1776 11.3664-2.9184 22.6304-5.1712 33.6896-0.1536 0.8704-0.3584 1.6896-0.512 2.56-1.1264 5.3248-2.304 10.5984-3.6864 15.8208-0.0512 0.1536-0.1024 0.3584-0.1024 0.512-40.6528 156.672-183.296 272.7936-352.5632 272.7936z m342.272-163.4304h-2.304a390.31808 390.31808 0 0 0 42.1376-101.6832c0.0512-0.256 0.1024-0.512 0.2048-0.768 3.072-12.0832 5.632-24.3712 7.5776-36.7616l0.4608-2.9184c0.8704-5.9392 1.6896-11.9296 2.304-17.92 0-0.1024 0-0.1536 0.0512-0.256a411.648 411.648 0 0 0 1.5872-22.1696c0.256-6.0416 0.4608-12.032 0.4608-18.1248 0-4.4544-0.1024-8.96-0.256-13.4144-0.0512-2.1504-0.2048-4.3008-0.3072-6.5024-0.1024-2.2528-0.2048-4.5056-0.3584-6.7072-0.2048-2.7648-0.4608-5.5808-0.6656-8.3456-0.1536-1.5872-0.256-3.1744-0.4096-4.7616-0.3072-3.072-0.6656-6.0928-1.0752-9.1648l-0.4608-3.8912c-0.4096-3.1232-0.9216-6.2976-1.3824-9.4208-0.2048-1.2288-0.3584-2.4064-0.5632-3.6352-0.512-3.1232-1.0752-6.1952-1.6896-9.2672-0.256-1.28-0.4608-2.5088-0.7168-3.7888-0.6144-2.9696-1.2288-5.888-1.8944-8.8576-0.3072-1.4336-0.6656-2.9184-1.024-4.352-0.6656-2.7136-1.3312-5.376-2.048-8.0896-0.4608-1.7408-0.9216-3.5328-1.4336-5.2736l-1.0752-3.9936c69.0176 16.8448 120.1664 79.8208 120.1664 152.7296-0.1024 86.8352-70.6048 157.3376-157.2864 157.3376zM444.2624 260.5568c-8.4992 0-15.36-6.8608-15.36-15.36V111.104c0-8.4992 6.8608-15.36 15.36-15.36s15.36 6.8608 15.36 15.36v134.0928c0 8.4992-6.8608 15.36-15.36 15.36zM245.5552 260.5568c-8.4992 0-15.36-6.8608-15.36-15.36V147.0976c0-8.4992 6.8608-15.36 15.36-15.36s15.36 6.8608 15.36 15.36V245.248c0 8.448-6.8608 15.3088-15.36 15.3088zM641.6896 260.5568c-8.4992 0-15.36-6.8608-15.36-15.36V147.0976c0-8.4992 6.8608-15.36 15.36-15.36s15.36 6.8608 15.36 15.36V245.248a15.36 15.36 0 0 1-15.36 15.3088z" fill="#333333" p-id="2410"></path><path d="M726.1696 551.7824c-28.9792 0-55.7056-8.2432-68.9664-19.5584-68.2496-54.528-125.8496-6.912-130.5088-2.816-26.4192 25.9072-90.9824 26.3168-121.6512 0.5632-19.0976-15.9744-55.0912-12.7488-74.496 0.8192-28.3648 19.8656-69.5296 19.968-100.0448 0.3072-41.728-26.5216-84.2752-0.9728-86.0672 0.1536a15.4624 15.4624 0 0 1-21.1456-4.9664c-4.4544-7.168-2.304-16.5888 4.864-21.0944 2.4576-1.536 60.4672-37.12 118.8864 0.0512 20.3776 13.1072 47.4112 13.2608 65.8432 0.3584 29.184-20.4288 81.1008-24.9344 111.872 0.8192 19.6096 16.4352 66.816 14.7456 80.5376 0.9216l0.5632-0.5632c27.392-24.832 98.2528-56.4224 170.752 1.6384 0.1536 0.1024 0.3072 0.256 0.4608 0.3584 15.8208 13.7216 80.9472 22.272 112.0768-10.9056a15.31904 15.31904 0 0 1 21.7088-0.6656 15.31904 15.31904 0 0 1 0.6656 21.7088c-22.3744 23.8592-55.0912 32.8704-85.3504 32.8704z" fill="#333333" p-id="2411"></path></svg>