<?xml version="1.0" standalone="no"?><!DOCTYPE svg PUBLIC "-//W3C//DTD SVG 1.1//EN" "http://www.w3.org/Graphics/SVG/1.1/DTD/svg11.dtd"><svg t="1679062223123" class="icon" viewBox="0 0 1024 1024" version="1.1" xmlns="http://www.w3.org/2000/svg" p-id="1492" xmlns:xlink="http://www.w3.org/1999/xlink" width="200" height="200"><path d="M820.48 400.896c0-32.6144 22.9376-68.5056 13.568-97.9456-9.728-30.5152-49.3568-45.7728-67.4816-71.1168-18.3296-25.6512-20.48-68.6592-45.6192-87.296-24.9344-18.4832-65.6896-7.3728-95.6416-17.2544-28.8768-9.5744-55.296-43.264-87.3472-43.264-32.0512 0-58.4192 33.6896-87.3472 43.264-29.952 9.8816-70.7072-1.2288-95.6416 17.2544-25.1904 18.6368-27.2896 61.6448-45.6192 87.296-18.1248 25.3952-57.7536 40.6528-67.4816 71.1168-9.3696 29.44 13.568 65.3312 13.568 97.9456 0 32.6144-22.9376 68.5056-13.568 97.9456 9.728 30.5152 49.3568 45.7728 67.4816 71.1168 18.3296 25.6512 20.48 68.6592 45.6192 87.296 24.9344 18.4832 65.6896 7.3728 95.6416 17.2544 28.8768 9.5744 55.296 43.264 87.3472 43.264 32.0512 0 58.4192-33.6896 87.3472-43.264 29.952-9.8816 70.7072 1.2288 95.6416-17.2544 25.1904-18.6368 27.2896-61.6448 45.6192-87.296 18.1248-25.3952 57.7536-40.6528 67.4816-71.1168 9.4208-29.44-13.568-65.3312-13.568-97.9456z m-282.5216 203.1616c-128.6144 4.2496-225.3312-96.9728-225.3312-209.2032 0-112.1792 81.8688-212.6336 225.3312-212.6336 110.1824 0 199.5264 106.4448 199.5264 218.6752 0 112.1792-89.3952 199.4752-199.5264 203.1616z" fill="#FF927C" p-id="1493"></path><path d="M537.9072 219.2384c-107.4176 0-194.5088 87.0912-194.5088 194.5088s87.0912 194.5088 194.5088 194.5088 194.5088-87.0912 194.5088-194.5088-87.0912-194.5088-194.5088-194.5088z m74.9568 152.32l-37.888 37.4272c-1.8432 1.8432-2.7136 4.5056-2.2528 7.0656l9.3184 52.4288c1.1776 6.5024-5.632 11.52-11.52 8.448l-47.3088-24.4736c-2.304-1.2288-5.12-1.1776-7.424 0.0512l-47.0016 25.088c-5.8368 3.1232-12.6976-1.792-11.6224-8.3456l8.6528-52.5312c0.4096-2.6112-0.4608-5.2224-2.3552-7.0144l-38.3488-36.9152c-4.7616-4.5568-2.2016-12.6464 4.352-13.6192l52.6848-7.9872c2.6112-0.4096 4.8128-2.048 5.9904-4.4032l23.296-47.9232c2.8672-5.9392 11.3152-5.9904 14.2848-0.1024l23.8592 47.616c1.1776 2.3552 3.4304 3.9424 6.0416 4.3008l52.736 7.3216c6.5024 0.9216 9.1648 8.9088 4.5056 13.568z" fill="#EDC951" p-id="1494"></path><path d="M518.9632 623.6672c-126.1568 0-228.8128-102.656-228.8128-228.8128s102.656-228.8128 228.8128-228.8128 228.8128 102.656 228.8128 228.8128-102.656 228.8128-228.8128 228.8128z m0-426.9056c-109.2096 0-198.0928 88.8832-198.0928 198.0928s88.8832 198.0928 198.0928 198.0928 198.0928-88.8832 198.0928-198.0928-88.832-198.0928-198.0928-198.0928z" fill="#333333" p-id="1495"></path><path d="M518.9632 743.168c-25.0368 0-46.2848-14.4896-65.024-27.2896-11.6224-7.936-22.6304-15.4624-33.1264-18.8928-11.264-3.6352-25.0368-4.096-39.6288-4.608-23.3984-0.768-47.5648-1.5872-66.9696-15.7184-19.6096-14.2848-27.8528-37.12-35.84-59.2384-4.9152-13.6192-9.5744-26.5216-16.384-35.8912-6.656-9.1648-17.408-17.4592-28.7232-26.2144-17.8688-13.7728-38.0928-29.44-45.6704-52.8384-7.2704-22.4256-0.6656-45.4656 5.7856-67.7376 4.096-14.2336 7.9872-27.6992 7.9872-39.936s-3.8912-25.6512-7.9872-39.936c-6.4-22.272-13.056-45.312-5.7856-67.7376 7.5776-23.3984 27.8016-39.0144 45.6704-52.8384 11.3152-8.7552 22.016-17.0496 28.7232-26.2144 6.8096-9.3696 11.4688-22.2208 16.384-35.8912 7.9872-22.1184 16.2304-45.0048 35.84-59.2384 19.4048-14.1312 43.6224-14.9504 66.9696-15.7184 14.592-0.512 28.3648-0.9728 39.6288-4.608 10.496-3.4304 21.504-10.9056 33.1264-18.8928 18.7392-12.8 39.9872-27.2896 65.024-27.2896s46.2848 14.4896 65.024 27.2896c11.6224 7.936 22.6304 15.4624 33.1264 18.8928 11.264 3.6352 25.0368 4.096 39.6288 4.608 23.3984 0.768 47.5648 1.5872 66.9696 15.7184 19.6096 14.2848 27.8528 37.12 35.84 59.2384 4.9152 13.6192 9.5744 26.4704 16.384 35.84 6.7072 9.1648 17.408 17.4592 28.7232 26.2144 17.8688 13.7728 38.0928 29.44 45.6704 52.8384 7.2704 22.4256 0.6656 45.4656-5.7856 67.7376-4.096 14.2336-7.9872 27.6992-7.9872 39.936s3.8912 25.6512 7.9872 39.8848c6.4 22.272 13.056 45.312 5.7856 67.7376-7.5776 23.3984-27.8016 39.0144-45.6704 52.8384-11.3152 8.7552-22.016 17.0496-28.7232 26.2144-6.8096 9.3696-11.4688 22.2208-16.384 35.8912-7.9872 22.1184-16.2304 44.9536-35.84 59.2384-19.4048 14.1312-43.6224 14.9504-67.0208 15.7184-14.592 0.512-28.3648 0.9728-39.6288 4.608-10.496 3.4304-21.504 10.9056-33.1264 18.8928-18.688 12.9024-39.936 27.392-64.9728 27.392z m0-665.9584c-15.5648 0-31.1808 10.6496-47.7184 21.9648-12.9024 8.8064-26.2656 17.9712-40.96 22.7328-15.36 4.9664-32 5.5296-48.0768 6.0928-19.6096 0.6656-38.144 1.28-49.92 9.8816-11.9808 8.704-18.3296 26.2656-24.9856 44.8512-5.4272 15.0528-11.0592 30.6176-20.4288 43.52-9.2672 12.7488-22.2208 22.7328-34.7648 32.4608-15.7184 12.1344-30.5664 23.6544-35.2256 37.9904-4.352 13.4656 0.7168 31.0784 6.0928 49.7664 4.5056 15.6672 9.1648 31.8976 9.1648 48.4352s-4.6592 32.768-9.1648 48.4352c-5.376 18.6368-10.4448 36.2496-6.0928 49.7664 4.6592 14.3872 19.5072 25.856 35.2256 37.9904 12.544 9.6768 25.4976 19.712 34.7648 32.4608 9.4208 12.9024 15.0016 28.4672 20.4288 43.52 6.7072 18.5856 13.0048 36.096 24.9856 44.8 11.776 8.6016 30.3104 9.216 49.92 9.8816 16.0768 0.5632 32.7168 1.0752 48.0768 6.0928 14.6944 4.7616 28.0576 13.8752 40.96 22.7328 16.5376 11.3152 32.1536 21.9648 47.7184 21.9648s31.1808-10.6496 47.7184-21.9648c12.9024-8.8064 26.2656-17.9712 40.96-22.7328 15.36-4.9664 32-5.5296 48.0768-6.0928 19.6096-0.6656 38.144-1.28 49.9712-9.8816 11.9808-8.704 18.2784-26.2656 24.9856-44.8 5.4272-15.0528 11.0592-30.6176 20.4288-43.52 9.2672-12.7488 22.2208-22.7328 34.7648-32.4608 15.7184-12.1344 30.5664-23.6544 35.2256-37.9904 4.4032-13.4656-0.7168-31.1296-6.0928-49.7664-4.5056-15.6672-9.1648-31.8976-9.1648-48.4352s4.6592-32.7168 9.1648-48.4352c5.376-18.6368 10.4448-36.3008 6.0928-49.7664-4.6592-14.3872-19.5072-25.856-35.2256-37.9904-12.544-9.6768-25.4976-19.712-34.7648-32.4608-9.3696-12.9024-15.0016-28.4672-20.4288-43.52-6.7072-18.5856-13.0048-36.096-24.9856-44.8512-11.776-8.6016-30.3104-9.216-49.92-9.8816-16.0768-0.5632-32.7168-1.0752-48.0768-6.0928-14.6944-4.7616-28.0576-13.8752-40.96-22.7328-16.5888-11.264-32.2048-21.9648-47.7696-21.9648z" fill="#333333" p-id="1496"></path><path d="M325.12 732.928s49.5616 82.432 161.3312 47.8208c-28.1088 82.3808-61.44 190.208-61.44 190.208l-64.7168-112.4352-93.0816 20.992 57.9072-146.5856zM742.2976 715.008s-53.7088 61.952-140.544 71.936c28.1088 82.3808 43.8272 134.0928 43.8272 134.0928l40.4992-70.3488 136.8576 45.824-80.64-181.504z" fill="#FF927C" p-id="1497"></path><path d="M421.888 977.152c-5.4272 0-10.5472-2.9184-13.312-7.68l-58.4192-101.5296-122.7264 41.1136c-5.6832 1.8944-11.9296 0.3584-16.0256-3.9936-4.096-4.352-5.3248-10.6496-3.1232-16.2304l71.8848-182.016c1.9968-5.0688 6.5024-8.704 11.8784-9.5232 5.3248-0.8704 10.752 1.2288 14.2336 5.376 2.9184 3.4816 72.2432 85.2992 172.4928 54.2208 5.5296-1.6896 11.52-0.2048 15.5648 3.9424s5.376 10.1888 3.5328 15.6672c-27.6992 81.2032-60.9792 188.7232-61.2864 189.7984a15.44704 15.44704 0 0 1-12.9536 10.752c-0.6144 0.0512-1.1776 0.1024-1.7408 0.1024z m-64.7168-143.1552a15.36 15.36 0 0 1 13.312 7.68l47.2064 82.0224c10.24-32.512 26.4704-83.6608 42.2912-131.0208-75.52 11.52-132.7104-28.16-159.9488-52.6848l-51.0976 129.4336 103.3728-34.6112c1.5872-0.5632 3.2256-0.8192 4.864-0.8192zM617.1136 977.152c-0.5632 0-1.1264-0.0512-1.6896-0.1024a15.3088 15.3088 0 0 1-12.9536-10.752c-0.3584-1.0752-33.5872-108.5952-61.2864-189.7984-1.8944-5.4784-0.512-11.52 3.5328-15.6672 4.0448-4.1472 10.0352-5.6832 15.5648-3.9424 100.3008 31.0784 169.6256-50.7392 172.4928-54.2208a15.34464 15.34464 0 0 1 26.112 4.1472l71.8848 182.016a15.4112 15.4112 0 0 1-3.1232 16.2304c-4.096 4.352-10.3424 5.888-16.0256 3.9936l-122.7264-41.1136-58.4192 101.5296c-2.816 4.7616-7.936 7.68-13.3632 7.68z m-38.0928-184.4224c15.8208 47.36 32.0512 98.5088 42.2912 131.0208l47.2064-82.0224a15.36 15.36 0 0 1 18.176-6.912l103.3728 34.6112-51.0976-129.4336c-27.2896 24.5248-84.48 64.2048-159.9488 52.736z" fill="#333333" p-id="1498"></path><path d="M521.3184 349.6448l11.2128 22.3744c0.5632 1.1264 1.5872 1.8432 2.816 2.048l24.7808 3.4304c3.072 0.4096 4.3008 4.1984 2.0992 6.4l-17.8176 17.6128c-0.8704 0.8704-1.28 2.0992-1.0752 3.328l4.4032 24.6784c0.5632 3.072-2.6624 5.4272-5.4272 3.9936l-22.2208-11.52a3.79904 3.79904 0 0 0-3.4816 0l-22.1184 11.776c-2.7136 1.4848-5.9904-0.8704-5.4784-3.8912l4.096-24.7296a3.80928 3.80928 0 0 0-1.0752-3.328l-18.0224-17.3568a3.7376 3.7376 0 0 1 2.048-6.4l24.7808-3.7376a3.8912 3.8912 0 0 0 2.816-2.048l10.9568-22.528a3.70688 3.70688 0 0 1 6.7072-0.1024z" fill="#FF927C" p-id="1499"></path><path d="M465.0496 493.8752c-4.7616 0-9.5232-1.4848-13.568-4.4032a23.20896 23.20896 0 0 1-9.4208-22.7328l8.0384-48.6912-35.584-34.2528c-6.4512-6.1952-8.7552-15.36-6.0416-23.8592s9.8816-14.6432 18.7392-15.9744l48.7936-7.424 21.5552-44.3904a23.26528 23.26528 0 0 1 20.8384-13.1584h0.1536c8.9088 0 16.8448 4.9152 20.8384 12.8512l22.1184 44.1344 48.896 6.8096c8.8576 1.2288 16.0768 7.2704 18.944 15.7184 2.816 8.4992 0.6144 17.664-5.7344 23.9616l-35.1744 34.7136 8.6528 48.5888c1.5872 8.8064-1.9456 17.5616-9.1648 22.8864a23.19872 23.19872 0 0 1-24.576 1.8944l-43.8272-22.6816-43.5712 23.2448c-3.3792 1.8944-7.168 2.7648-10.9056 2.7648z m-18.432-121.8048l27.5968 26.5728a23.36256 23.36256 0 0 1 6.8608 20.5824l-6.2464 37.7856 33.792-18.0224c6.7584-3.6352 14.8992-3.6864 21.7088-0.1536l33.9968 17.6128-6.7072-37.6832c-1.3312-7.5776 1.1264-15.3088 6.5536-20.6848l27.2384-26.88-37.9392-5.2736a23.3472 23.3472 0 0 1-17.6128-12.6464l-17.152-34.2528-16.7424 34.4064a23.25504 23.25504 0 0 1-17.4592 12.8512l-37.888 5.7856z m159.6416 1.1264z m-94.3104-67.584z" fill="#333333" p-id="1500"></path></svg>